<svg xmlns="http://www.w3.org/2000/svg" viewBox="0 0 1000 500" role="img" aria-label="Dodge Viper ACR — suede wheel, analogue tachometer and Uconnect cockpit" data-hand-drawn="2026-09-12"><defs>
 <linearGradient id="viper-cockpit-metal" x1="0" y1="0" x2="0" y2="1"><stop stop-color="#f0f3f4"/><stop offset=".25" stop-color="#858f98"/><stop offset=".5" stop-color="#dde4e6"/><stop offset=".8" stop-color="#505c67"/><stop offset="1" stop-color="#9ca7b0"/></linearGradient>
 <linearGradient id="viper-cockpit-carbonShade" x2=".75" y2="1"><stop stop-color="#353c41"/><stop offset=".5" stop-color="#12171b"/><stop offset="1" stop-color="#03070a"/></linearGradient>
 <pattern id="viper-cockpit-weave" width="9" height="9" patternUnits="userSpaceOnUse" patternTransform="rotate(25)"><rect width="9" height="9" fill="#141b20"/><path d="M0 1h5M4 5h5" stroke="#39444a" stroke-width="2"/><path d="M1 0v5M6 4v5" stroke="#222c32" stroke-width="2"/></pattern>
 <linearGradient id="viper-cockpit-rubber" x2=".8" y2="1"><stop stop-color="#3d4144"/><stop offset=".35" stop-color="#111417"/><stop offset=".85" stop-color="#020406"/><stop offset="1" stop-color="#242c31"/></linearGradient>
 <radialGradient id="viper-cockpit-tyre"><stop stop-color="#1b2329"/><stop offset=".65" stop-color="#05080a"/><stop offset=".88" stop-color="#22292e"/><stop offset="1" stop-color="#020406"/></radialGradient>
 <linearGradient id="viper-cockpit-glass" x2=".2" y2="1"><stop stop-color="#8ba5b5"/><stop offset=".24" stop-color="#3f5867"/><stop offset=".65" stop-color="#101f2a"/><stop offset="1" stop-color="#060b10"/></linearGradient>
 <linearGradient id="viper-cockpit-silver" x2=".15" y2="1"><stop stop-color="#f8fafb"/><stop offset=".3" stop-color="#aebbc5"/><stop offset=".47" stop-color="#e9eef1"/><stop offset=".75" stop-color="#65737e"/><stop offset="1" stop-color="#202d38"/></linearGradient>
 <linearGradient id="viper-cockpit-blue" x2="0" y2="1"><stop stop-color="#95b0d2"/><stop offset=".28" stop-color="#425d8b"/><stop offset=".52" stop-color="#172c59"/><stop offset=".76" stop-color="#3c5180"/><stop offset="1" stop-color="#0d1636"/></linearGradient>
 <linearGradient id="viper-cockpit-red" x2=".2" y2="1"><stop stop-color="#ff8584"/><stop offset=".2" stop-color="#e32b36"/><stop offset=".48" stop-color="#9b091a"/><stop offset=".74" stop-color="#490d15"/><stop offset="1" stop-color="#18090e"/></linearGradient>
 <linearGradient id="viper-cockpit-white" x2="0" y2="1"><stop stop-color="#f7fafb"/><stop offset=".5" stop-color="#b7c3c9"/><stop offset="1" stop-color="#555f69"/></linearGradient>
 <linearGradient id="viper-cockpit-titanium" x2="1" y2=".4"><stop stop-color="#8a7660"/><stop offset=".22" stop-color="#e5d5b8"/><stop offset=".47" stop-color="#736560"/><stop offset=".72" stop-color="#b0afbc"/><stop offset="1" stop-color="#6b78a0"/></linearGradient>
 <linearGradient id="viper-cockpit-suede" x2=".4" y2="1"><stop stop-color="#404346"/><stop offset=".45" stop-color="#191d21"/><stop offset="1" stop-color="#090d10"/></linearGradient>
</defs><path d="M0 161Q181 103 376 110Q583 112 780 144L1000 199V500H0Z" fill="url(#viper-cockpit-suede)" stroke="#657079" stroke-width="2" /><path d="M0 207L68 0L130 0L61 215M1000 204L909 0L858 0L948 204" fill="url(#viper-cockpit-weave)" stroke="#4e5b64" stroke-width="2" /><path d="M12 163Q239 88 463 122Q733 142 983 202" fill="none" stroke="#bec7c9" stroke-width="1" stroke-dasharray="3 3"/><path d="M166 220L174 158Q239 95 371 126Q420 135 448 186L440 231Z" fill="#080d11" stroke="#74818a" stroke-width="2" /><rect x="193" y="163" width="102" height="66" rx="5" fill="#091219" stroke="#263b49" /><text x="240" y="199" font-family="Arial,sans-serif" font-size="30" fill="#f2f6f8" id="cabSpeedArt" data-live="text" text-anchor="middle" font-weight="700" >0</text><text x="240" y="216" font-family="Arial,sans-serif" font-size="9" fill="#a9bbc6" text-anchor="middle">KM/H</text><circle cx="354" cy="186" r="57" fill="#040a0e" stroke="url(#viper-cockpit-metal)" stroke-width="3" /><circle cx="354" cy="186" r="51.870000000000005" fill="#080d10" stroke="#303c44" stroke-width="1" /><path d="M316.4485013983077 217.50944862683417L312.51869340510734 220.80694906452612" fill="none" stroke="#e0e9ed" stroke-width="2" /><text x="322.56153605439715" y="216.38000350153558" font-family="Arial,sans-serif" font-size="11" fill="#d8e1e5" text-anchor="middle">0</text><path d="M305.0409357218484 188.44344531508736L299.91731271599537 188.69915470852675" fill="none" stroke="#e0e9ed" stroke-width="2" /><text x="313.01101595317544" y="192.045675147515" font-family="Arial,sans-serif" font-size="11" fill="#d8e1e5" text-anchor="middle">1</text><path d="M313.4977752830299 158.38605075372126L309.25917037078887 155.4962188558549" fill="none" stroke="#e0e9ed" stroke-width="2" /><text x="320.09116070207153" y="166.88134481706896" font-family="Arial,sans-serif" font-size="11" fill="#d8e1e5" text-anchor="middle">2</text><path d="M338.3877844046624 139.5326014908872L336.75394788887127 134.66973420504982" fill="none" stroke="#e0e9ed" stroke-width="2" /><text x="340.92930787367084" y="151.09706171330092" font-family="Arial,sans-serif" font-size="11" fill="#d8e1e5" text-anchor="middle">3</text><path d="M369.61221559533755 139.5326014908872L371.2460521111287 134.6697342050498" fill="none" stroke="#e0e9ed" stroke-width="2" /><text x="367.0706921263291" y="151.09706171330092" font-family="Arial,sans-serif" font-size="11" fill="#d8e1e5" text-anchor="middle">4</text><path d="M394.50222471697003 158.3860507537212L398.7408296292111 155.49621885585483" fill="none" stroke="#e0e9ed" stroke-width="2" /><text x="387.9088392979284" y="166.88134481706894" font-family="Arial,sans-serif" font-size="11" fill="#d8e1e5" text-anchor="middle">5</text><path d="M402.9590642781516 188.44344531508742L408.08268728400463 188.6991547085268" fill="none" stroke="#ea4a46" stroke-width="2" /><text x="394.98898404682456" y="192.04567514751506" font-family="Arial,sans-serif" font-size="11" fill="#d8e1e5" text-anchor="middle">6</text><path d="M391.5514986016923 217.50944862683414L395.48130659489266 220.8069490645261" fill="none" stroke="#ea4a46" stroke-width="2" /><text x="385.43846394560285" y="216.38000350153555" font-family="Arial,sans-serif" font-size="11" fill="#d8e1e5" text-anchor="middle">7</text><path d="M354 186l-32.74839994333631 27.479170314099562" fill="none" stroke="#f25145" stroke-width="2.5" id="cabTachNeedle" data-live="needle" data-cx="354" data-cy="186" data-max-rpm="7000"/><circle cx="354" cy="186" r="5" fill="#28353f" stroke="#aebbc4" stroke-width="1" /><text x="354" y="213" font-family="Arial,sans-serif" font-size="13" fill="#f2f6f8" id="cabGearArt" data-live="text" text-anchor="middle" font-weight="700" >N</text><circle cx="101" cy="232" r="33" fill="url(#viper-cockpit-metal)" stroke="#070b0e" stroke-width="3" /><circle cx="101" cy="232" r="27.389999999999997" fill="#020507" stroke="#58626c" stroke-width="1" /><path d="M77.9 220.45q23.099999999999998 6.6000000000000005 46.199999999999996 0" fill="none" stroke="#59636b" stroke-width="2" /><path d="M77.9 232q23.099999999999998 6.6000000000000005 46.199999999999996 0" fill="none" stroke="#59636b" stroke-width="2" /><path d="M77.9 243.55q23.099999999999998 6.6000000000000005 46.199999999999996 0" fill="none" stroke="#59636b" stroke-width="2" /><circle cx="582" cy="169" r="29" fill="url(#viper-cockpit-metal)" stroke="#070b0e" stroke-width="3" /><circle cx="582" cy="169" r="24.07" fill="#020507" stroke="#58626c" stroke-width="1" /><path d="M561.7 158.85q20.299999999999997 5.800000000000001 40.599999999999994 0" fill="none" stroke="#59636b" stroke-width="2" /><path d="M561.7 169q20.299999999999997 5.800000000000001 40.599999999999994 0" fill="none" stroke="#59636b" stroke-width="2" /><path d="M561.7 179.15q20.299999999999997 5.800000000000001 40.599999999999994 0" fill="none" stroke="#59636b" stroke-width="2" /><circle cx="662" cy="172" r="29" fill="url(#viper-cockpit-metal)" stroke="#070b0e" stroke-width="3" /><circle cx="662" cy="172" r="24.07" fill="#020507" stroke="#58626c" stroke-width="1" /><path d="M641.7 161.85q20.299999999999997 5.800000000000001 40.599999999999994 0" fill="none" stroke="#59636b" stroke-width="2" /><path d="M641.7 172q20.299999999999997 5.800000000000001 40.599999999999994 0" fill="none" stroke="#59636b" stroke-width="2" /><path d="M641.7 182.15q20.299999999999997 5.800000000000001 40.599999999999994 0" fill="none" stroke="#59636b" stroke-width="2" /><circle cx="921" cy="235" r="29" fill="url(#viper-cockpit-metal)" stroke="#070b0e" stroke-width="3" /><circle cx="921" cy="235" r="24.07" fill="#020507" stroke="#58626c" stroke-width="1" /><path d="M900.7 224.85q20.299999999999997 5.800000000000001 40.599999999999994 0" fill="none" stroke="#59636b" stroke-width="2" /><path d="M900.7 235q20.299999999999997 5.800000000000001 40.599999999999994 0" fill="none" stroke="#59636b" stroke-width="2" /><path d="M900.7 245.15q20.299999999999997 5.800000000000001 40.599999999999994 0" fill="none" stroke="#59636b" stroke-width="2" /><path d="M527 208L720 220L769 408L537 408Z" fill="url(#viper-cockpit-weave)" stroke="#9ca8ae" stroke-width="2" /><rect x="551" y="227" width="161" height="100" rx="7" fill="#02080c" stroke="url(#viper-cockpit-metal)" /><rect x="559" y="235" width="145" height="80" rx="2" fill="#0a161c" stroke="#273e4b" /><text x="631" y="252" font-family="Arial,sans-serif" font-size="11" fill="#ed4b49" text-anchor="middle">SRT PERFORMANCE</text><path d="M574 283h113M574 287h113" fill="none" stroke="#394e5a" stroke-width="1" /><text x="631" y="274" font-family="Arial,sans-serif" font-size="10" fill="#f6d1ce" id="cabPageArt" data-live="text" text-anchor="middle" font-weight="700" >G-METER</text><text x="631" y="307" font-family="Arial,sans-serif" font-size="20" fill="#f0f6f8" id="cabGArt" data-live="text" text-anchor="middle" font-weight="700" >0.00 G</text><circle cx="568" cy="339" r="14" fill="#111c24" stroke="url(#viper-cockpit-metal)" stroke-width="2" /><circle cx="706" cy="348" r="14" fill="#111c24" stroke="url(#viper-cockpit-metal)" stroke-width="2" /><circle cx="637" cy="366" r="22" fill="#111d26" stroke="url(#viper-cockpit-metal)" stroke-width="2" /><text x="637" y="370" font-family="Arial,sans-serif" font-size="8" fill="#e3edf1" text-anchor="middle">AUTO</text><g data-control="hazardBtn" role="button" tabindex="0" aria-label="HAZARD"><circle cx="606" cy="339" r="9" fill="#0a1015" stroke="#da4749" stroke-width="2" /><circle cx="606" cy="339" r="4" fill="#da4749" stroke="none" stroke-width="0" /><text x="606" y="358" font-family="Arial,sans-serif" font-size="7" fill="#dbe4e7" text-anchor="middle">HAZARD</text></g><g data-control="ignitionBtn" role="button" tabindex="0" aria-label="START"><circle cx="759" cy="244" r="9" fill="#0a1015" stroke="#db473a" stroke-width="2" /><circle cx="759" cy="244" r="4" fill="#db473a" stroke="none" stroke-width="0" /><text x="759" y="263" font-family="Arial,sans-serif" font-size="7" fill="#dbe4e7" text-anchor="middle">START</text></g><path d="M537 387L772 409L865 500H532Z" fill="url(#viper-cockpit-suede)" stroke="#b6c1c6" stroke-width="1.5" /><path d="M592 459Q574 435 610 416Q644 403 669 431L698 465Z" fill="#151a20" stroke="#626b74" stroke-width="2" /><path d="M618 437L620 395L633 395L638 440" fill="url(#viper-cockpit-metal)" stroke="#37424c" stroke-width="1" /><circle cx="626" cy="388" r="19" fill="url(#viper-cockpit-suede)" stroke="url(#viper-cockpit-metal)" stroke-width="1" /><text x="626" y="391" font-family="Arial,sans-serif" font-size="6" fill="#eef5f8" text-anchor="middle">1 3 5</text><text x="626" y="399" font-family="Arial,sans-serif" font-size="6" fill="#eef5f8" text-anchor="middle">2 4 6</text><path d="M730 464L680 398L690 389L750 452Z" fill="#111820" stroke="#8c999f" stroke-width="2" /><path d="M768 251Q852 259 941 283" fill="none" stroke="#a9b5ba" stroke-width="1" stroke-dasharray="3 3"/><text x="848" y="254" font-family="Arial,sans-serif" font-size="20" fill="#b72935" font-style="italic">ACR</text><g id="cabinWheelG" transform="translate(327 340)"><path d="M-95-79Q-42-125 29-109Q100-91 112-17Q120 58 63 97L-56 101Q-112 63-113-8Q-114-55-95-79Z" fill="none" stroke="url(#viper-cockpit-rubber)" stroke-width="23" /><path d="M-94-77Q-42-117 29-103Q95-86 105-17Q113 55 58 93L-53 94Q-105 60-106-8Q-107-52-94-77Z" fill="none" stroke="#b8c0c2" stroke-width="1" stroke-dasharray="3 3"/><path d="M-95-13L-36-25L29-23L95-9L90 29L37 27L20 80L-16 80L-43 25L-91 29Z" fill="url(#viper-cockpit-weave)" stroke="#586770" stroke-width="2" /><circle cx="0" cy="2" r="41" fill="url(#viper-cockpit-suede)" stroke="#879299" stroke-width="1.5" /><path d="M-19-14Q0-26 20-12L15 20Q0 35-17 19Z" fill="#8e161f" stroke="#e88c81" stroke-width="1.5" /><path d="M-12-9Q14-21 14-6L1 7L9 15L-9 19L-12 6L1-8Z" fill="#121b24" stroke="#f49584" stroke-width="1" /><rect x="-86" y="-9" width="35" height="36" rx="5" fill="#111b24" stroke="#b9c6ce" /><rect x="52" y="-9" width="35" height="36" rx="5" fill="#111b24" stroke="#b9c6ce" /><path d="M-83 3h30M-83 15h30M55 3h29M55 15h29" fill="none" stroke="#727f88" stroke-width="1" /><text x="-68" y="0" font-family="Arial,sans-serif" font-size="8" fill="#d8e4eb" text-anchor="middle">▲</text><text x="69" y="0" font-family="Arial,sans-serif" font-size="5" fill="#e7edf1" text-anchor="middle">LAUNCH</text><path d="M-8-111L8-111L11-96L-8-96Z" fill="#dbe0df" stroke="#c6cccf" stroke-width="1" /></g></svg>