<svg xmlns="http://www.w3.org/2000/svg" viewBox="0 0 1000 450" role="img" aria-label="Dodge Viper ACR Extreme Aero — hand-drawn driver-side profile" data-hand-drawn="2026-09-12"><defs>
 <linearGradient id="viper-exterior-metal" x1="0" y1="0" x2="0" y2="1"><stop stop-color="#f0f3f4"/><stop offset=".25" stop-color="#858f98"/><stop offset=".5" stop-color="#dde4e6"/><stop offset=".8" stop-color="#505c67"/><stop offset="1" stop-color="#9ca7b0"/></linearGradient>
 <linearGradient id="viper-exterior-carbonShade" x2=".75" y2="1"><stop stop-color="#353c41"/><stop offset=".5" stop-color="#12171b"/><stop offset="1" stop-color="#03070a"/></linearGradient>
 <pattern id="viper-exterior-weave" width="9" height="9" patternUnits="userSpaceOnUse" patternTransform="rotate(25)"><rect width="9" height="9" fill="#141b20"/><path d="M0 1h5M4 5h5" stroke="#39444a" stroke-width="2"/><path d="M1 0v5M6 4v5" stroke="#222c32" stroke-width="2"/></pattern>
 <linearGradient id="viper-exterior-rubber" x2=".8" y2="1"><stop stop-color="#3d4144"/><stop offset=".35" stop-color="#111417"/><stop offset=".85" stop-color="#020406"/><stop offset="1" stop-color="#242c31"/></linearGradient>
 <radialGradient id="viper-exterior-tyre"><stop stop-color="#1b2329"/><stop offset=".65" stop-color="#05080a"/><stop offset=".88" stop-color="#22292e"/><stop offset="1" stop-color="#020406"/></radialGradient>
 <linearGradient id="viper-exterior-glass" x2=".2" y2="1"><stop stop-color="#8ba5b5"/><stop offset=".24" stop-color="#3f5867"/><stop offset=".65" stop-color="#101f2a"/><stop offset="1" stop-color="#060b10"/></linearGradient>
 <linearGradient id="viper-exterior-silver" x2=".15" y2="1"><stop stop-color="#f8fafb"/><stop offset=".3" stop-color="#aebbc5"/><stop offset=".47" stop-color="#e9eef1"/><stop offset=".75" stop-color="#65737e"/><stop offset="1" stop-color="#202d38"/></linearGradient>
 <linearGradient id="viper-exterior-blue" x2="0" y2="1"><stop stop-color="#95b0d2"/><stop offset=".28" stop-color="#425d8b"/><stop offset=".52" stop-color="#172c59"/><stop offset=".76" stop-color="#3c5180"/><stop offset="1" stop-color="#0d1636"/></linearGradient>
 <linearGradient id="viper-exterior-red" x2=".2" y2="1"><stop stop-color="#ff8584"/><stop offset=".2" stop-color="#e32b36"/><stop offset=".48" stop-color="#9b091a"/><stop offset=".74" stop-color="#490d15"/><stop offset="1" stop-color="#18090e"/></linearGradient>
 <linearGradient id="viper-exterior-white" x2="0" y2="1"><stop stop-color="#f7fafb"/><stop offset=".5" stop-color="#b7c3c9"/><stop offset="1" stop-color="#555f69"/></linearGradient>
 <linearGradient id="viper-exterior-titanium" x2="1" y2=".4"><stop stop-color="#8a7660"/><stop offset=".22" stop-color="#e5d5b8"/><stop offset=".47" stop-color="#736560"/><stop offset=".72" stop-color="#b0afbc"/><stop offset="1" stop-color="#6b78a0"/></linearGradient>
 <linearGradient id="viper-exterior-suede" x2=".4" y2="1"><stop stop-color="#404346"/><stop offset=".45" stop-color="#191d21"/><stop offset="1" stop-color="#090d10"/></linearGradient>
</defs><rect x="0" y="0" width="1000" height="450" rx="0" fill="#0e151d" stroke="none" /><path d="M0 357H1000V450H0Z" fill="#080e14" stroke="none" stroke-width="1.5" /><path d="M0 370H1000" fill="none" stroke="#233440" stroke-width="1" /><ellipse cx="505" cy="366" rx="450" ry="20" fill="#000" opacity=".75"/><path d="M39 320L950 324L962 340L36 345Z" fill="url(#viper-exterior-weave)" stroke="#72818b" stroke-width="1" /><g id="rearWingArt"><path d="M129 240L140 133L152 134L153 242M228 213L238 137L250 139L244 225" fill="url(#viper-exterior-weave)" stroke="#737f89" stroke-width="1" /><path d="M58 113Q168 102 289 112L280 130L64 137Z" fill="url(#viper-exterior-carbonShade)" stroke="#8e9aa3" stroke-width="2" /><path d="M58 126L280 123L274 138L60 145Z" fill="#10191f" stroke="#8998a3" stroke-width="1" /><path d="M57 106L59 155L76 153L81 111Z" fill="url(#viper-exterior-weave)" stroke="#9da9b1" stroke-width="1" /></g><g id="bcBody"><path d="M70 317L133 324L159 320A81 93 0 0 1 321 325L663 325A87 97 0 0 1 837 326L936 324L957 304L949 277C918 251 873 237 824 228L620 207C589 168 548 144 500 139C455 134 418 151 384 178L326 217Q285 205 238 211Q183 213 151 230L107 238Q64 246 62 275Z" fill="url(#viper-exterior-silver)" stroke="#c5d1d9" stroke-width="2" />
<path d="M389 213L427 167Q462 145 499 150Q548 155 592 206L570 215Z" fill="url(#viper-exterior-glass)" stroke="#12212c" stroke-width="2" /><path d="M444 162L463 211" fill="none" stroke="#c8d2d7" stroke-width="7" /><path d="M447 161L466 211" fill="none" stroke="#17232b" stroke-width="3" />
<path d="M601 213L781 227L879 249L850 259L684 244Z" fill="#d7e0e6" stroke="none" stroke-width="1.5" /><path d="M619 217L651 224L679 253L662 258L612 236Z" fill="#091119" stroke="#97a6b0" stroke-width="1" />
<path d="M688 234l37 6-16 13-35-6z" fill="#081019" stroke="#a1afb8" stroke-width="1" /><path d="M735 238l37 6-16 13-35-6z" fill="#081019" stroke="#a1afb8" stroke-width="1" /><path d="M782 242l37 6-16 13-35-6z" fill="#081019" stroke="#a1afb8" stroke-width="1" />
<path d="M639 239Q668 241 687 257L654 299L611 300Q625 272 639 239Z" fill="#03080b" stroke="#627785" stroke-width="2" /><path d="M642 244L666 260L643 290" fill="none" stroke="#b81320" stroke-width="4" />
<g id="doorArt"><path d="M381 220L594 216L610 308L350 306L360 264Z" fill="transparent" stroke="#5d6f7b" stroke-width="1.5" /><path d="M559 232l25-2 3 7-26 3z" fill="#273943" stroke="#b4c1ca" stroke-width="1" /><path d="M373 291Q484 277 599 297" fill="none" stroke="#d9e3e8" stroke-width="2" /></g>
<path d="M358 314L634 314L617 333L345 331Z" fill="url(#viper-exterior-weave)" stroke="#576b78" stroke-width="1" /><path d="M886 261Q931 272 940 282L889 283L859 269Z" fill="#c8e9f7" stroke="#526c7c" stroke-width="2" /><path d="M890 267L930 278" fill="none" stroke="#fff" stroke-width="3" />
<path d="M68 267L116 259L116 277L64 284Z" fill="#c9212e" stroke="#70101b" stroke-width="1" /><path d="M78 291L148 286" fill="none" stroke="#162d3d" stroke-width="6" /><text x="547" y="288" font-family="Arial,sans-serif" font-size="20" fill="#972431" font-style="italic">ACR</text><path d="M591 184l34 6 5 15-29-4z" fill="url(#viper-exterior-silver)" stroke="#5e6f7c" stroke-width="1" />
</g><g id="quadExhaustArt"><path d="M332 319h43v11h-43z" fill="url(#viper-exterior-metal)" stroke="#344550" stroke-width="1" /><rect x="339" y="321" width="28" height="7" rx="3" fill="#010507" stroke="#3c4b57" /></g>
<g id="frontFlapArt"><path d="M876 323L970 314L963 339L850 342Z" fill="url(#viper-exterior-weave)" stroke="#637582" stroke-width="1" /><path d="M906 291l44-4-2 10-48 5zM911 305l44-5-3 9-48 5z" fill="#121e27" stroke="#6e8795" stroke-width="1" /></g>
<circle cx="240" cy="301" r="64" fill="url(#viper-exterior-tyre)" stroke="#060b10" stroke-width="3" /><circle cx="240" cy="301" r="54.4" fill="#161f26" stroke="#343e46" stroke-width="2" /><circle cx="240" cy="301" r="46.08" fill="url(#viper-exterior-metal)" stroke="#48545f" stroke-width="2" /><circle cx="240" cy="301" r="38.4" fill="#292e32" stroke="#5b6065" stroke-width="1" /><circle cx="275.2" cy="301" r="1.4" fill="#060a0e" stroke="none" stroke-width="0" /><circle cx="274.17715197339703" cy="309.42391138292203" r="1.4" fill="#060a0e" stroke="none" stroke-width="0" /><circle cx="271.168052102993" cy="317.35825565594064" r="1.4" fill="#060a0e" stroke="none" stroke-width="0" /><circle cx="266.34757833562276" cy="324.341917570076" r="1.4" fill="#060a0e" stroke="none" stroke-width="0" /><circle cx="259.9958790849367" cy="329.9690320794567" r="1.4" fill="#060a0e" stroke="none" stroke-width="0" /><circle cx="252.48209202389725" cy="333.9125717425266" r="1.4" fill="#060a0e" stroke="none" stroke-width="0" /><circle cx="244.24289114498737" cy="335.9433523682515" r="1.4" fill="#060a0e" stroke="none" stroke-width="0" /><circle cx="235.75710885501263" cy="335.9433523682515" r="1.4" fill="#060a0e" stroke="none" stroke-width="0" /><circle cx="227.51790797610275" cy="333.9125717425266" r="1.4" fill="#060a0e" stroke="none" stroke-width="0" /><circle cx="220.0041209150633" cy="329.9690320794567" r="1.4" fill="#060a0e" stroke="none" stroke-width="0" /><circle cx="213.65242166437724" cy="324.341917570076" r="1.4" fill="#060a0e" stroke="none" stroke-width="0" /><circle cx="208.831947897007" cy="317.3582556559407" r="1.4" fill="#060a0e" stroke="none" stroke-width="0" /><circle cx="205.82284802660297" cy="309.42391138292203" r="1.4" fill="#060a0e" stroke="none" stroke-width="0" /><circle cx="204.8" cy="301" r="1.4" fill="#060a0e" stroke="none" stroke-width="0" /><circle cx="205.82284802660297" cy="292.57608861707797" r="1.4" fill="#060a0e" stroke="none" stroke-width="0" /><circle cx="208.831947897007" cy="284.64174434405936" r="1.4" fill="#060a0e" stroke="none" stroke-width="0" /><circle cx="213.65242166437724" cy="277.65808242992404" r="1.4" fill="#060a0e" stroke="none" stroke-width="0" /><circle cx="220.0041209150633" cy="272.0309679205433" r="1.4" fill="#060a0e" stroke="none" stroke-width="0" /><circle cx="227.51790797610275" cy="268.0874282574734" r="1.4" fill="#060a0e" stroke="none" stroke-width="0" /><circle cx="235.7571088550126" cy="266.0566476317485" r="1.4" fill="#060a0e" stroke="none" stroke-width="0" /><circle cx="244.24289114498737" cy="266.0566476317485" r="1.4" fill="#060a0e" stroke="none" stroke-width="0" /><circle cx="252.48209202389725" cy="268.0874282574734" r="1.4" fill="#060a0e" stroke="none" stroke-width="0" /><circle cx="259.99587908493663" cy="272.0309679205433" r="1.4" fill="#060a0e" stroke="none" stroke-width="0" /><circle cx="266.34757833562276" cy="277.658082429924" r="1.4" fill="#060a0e" stroke="none" stroke-width="0" /><circle cx="271.168052102993" cy="284.64174434405936" r="1.4" fill="#060a0e" stroke="none" stroke-width="0" /><circle cx="274.17715197339703" cy="292.57608861707797" r="1.4" fill="#060a0e" stroke="none" stroke-width="0" /><path d="M264.96 277.32q18 25 0 46.08l-11-6v-37.76z" fill="#c02e37" stroke="#12181d" stroke-width="1" /><g class="wheel-spin" style="transform-box:fill-box;transform-origin:center;transform:rotate(var(--wheel-rot,0deg))"><path d="M-6-8L-4-46.08L5-50.56L9-46.72L5-8Z" fill="url(#viper-exterior-metal)" stroke="#26313b" stroke-width="1" transform="translate(240 301) rotate(0)"/><path d="M-6-8L-4-46.08L5-50.56L9-46.72L5-8Z" fill="url(#viper-exterior-metal)" stroke="#26313b" stroke-width="1" transform="translate(240 301) rotate(36)"/><path d="M-6-8L-4-46.08L5-50.56L9-46.72L5-8Z" fill="url(#viper-exterior-metal)" stroke="#26313b" stroke-width="1" transform="translate(240 301) rotate(72)"/><path d="M-6-8L-4-46.08L5-50.56L9-46.72L5-8Z" fill="url(#viper-exterior-metal)" stroke="#26313b" stroke-width="1" transform="translate(240 301) rotate(108)"/><path d="M-6-8L-4-46.08L5-50.56L9-46.72L5-8Z" fill="url(#viper-exterior-metal)" stroke="#26313b" stroke-width="1" transform="translate(240 301) rotate(144)"/><path d="M-6-8L-4-46.08L5-50.56L9-46.72L5-8Z" fill="url(#viper-exterior-metal)" stroke="#26313b" stroke-width="1" transform="translate(240 301) rotate(180)"/><path d="M-6-8L-4-46.08L5-50.56L9-46.72L5-8Z" fill="url(#viper-exterior-metal)" stroke="#26313b" stroke-width="1" transform="translate(240 301) rotate(216)"/><path d="M-6-8L-4-46.08L5-50.56L9-46.72L5-8Z" fill="url(#viper-exterior-metal)" stroke="#26313b" stroke-width="1" transform="translate(240 301) rotate(252)"/><path d="M-6-8L-4-46.08L5-50.56L9-46.72L5-8Z" fill="url(#viper-exterior-metal)" stroke="#26313b" stroke-width="1" transform="translate(240 301) rotate(288)"/><path d="M-6-8L-4-46.08L5-50.56L9-46.72L5-8Z" fill="url(#viper-exterior-metal)" stroke="#26313b" stroke-width="1" transform="translate(240 301) rotate(324)"/></g><circle cx="240" cy="301" r="10.88" fill="#17232b" stroke="#c02e37" stroke-width="2" /><circle cx="240" cy="301" r="4.48" fill="#bbc7cf" stroke="#3b4f5d" stroke-width="2" /><circle cx="749" cy="302" r="62" fill="url(#viper-exterior-tyre)" stroke="#060b10" stroke-width="3" /><circle cx="749" cy="302" r="52.699999999999996" fill="#161f26" stroke="#343e46" stroke-width="2" /><circle cx="749" cy="302" r="44.64" fill="url(#viper-exterior-metal)" stroke="#48545f" stroke-width="2" /><circle cx="749" cy="302" r="37.199999999999996" fill="#292e32" stroke="#5b6065" stroke-width="1" /><circle cx="783.1" cy="302" r="1.4" fill="#060a0e" stroke="none" stroke-width="0" /><circle cx="782.1091159742284" cy="310.1606641522057" r="1.4" fill="#060a0e" stroke="none" stroke-width="0" /><circle cx="779.1940504747745" cy="317.84706016669253" r="1.4" fill="#060a0e" stroke="none" stroke-width="0" /><circle cx="774.5242165126346" cy="324.61248264601113" r="1.4" fill="#060a0e" stroke="none" stroke-width="0" /><circle cx="768.3710078635324" cy="330.06374982697366" r="1.4" fill="#060a0e" stroke="none" stroke-width="0" /><circle cx="761.0920266481504" cy="333.88405387557265" r="1.4" fill="#060a0e" stroke="none" stroke-width="0" /><circle cx="753.1103007967065" cy="335.85137260674367" r="1.4" fill="#060a0e" stroke="none" stroke-width="0" /><circle cx="744.8896992032935" cy="335.85137260674367" r="1.4" fill="#060a0e" stroke="none" stroke-width="0" /><circle cx="736.9079733518496" cy="333.88405387557265" r="1.4" fill="#060a0e" stroke="none" stroke-width="0" /><circle cx="729.6289921364676" cy="330.06374982697366" r="1.4" fill="#060a0e" stroke="none" stroke-width="0" /><circle cx="723.4757834873654" cy="324.61248264601113" r="1.4" fill="#060a0e" stroke="none" stroke-width="0" /><circle cx="718.8059495252255" cy="317.84706016669253" r="1.4" fill="#060a0e" stroke="none" stroke-width="0" /><circle cx="715.8908840257716" cy="310.1606641522057" r="1.4" fill="#060a0e" stroke="none" stroke-width="0" /><circle cx="714.9" cy="302" r="1.4" fill="#060a0e" stroke="none" stroke-width="0" /><circle cx="715.8908840257716" cy="293.8393358477943" r="1.4" fill="#060a0e" stroke="none" stroke-width="0" /><circle cx="718.8059495252255" cy="286.1529398333075" r="1.4" fill="#060a0e" stroke="none" stroke-width="0" /><circle cx="723.4757834873654" cy="279.38751735398887" r="1.4" fill="#060a0e" stroke="none" stroke-width="0" /><circle cx="729.6289921364676" cy="273.93625017302634" r="1.4" fill="#060a0e" stroke="none" stroke-width="0" /><circle cx="736.9079733518495" cy="270.11594612442735" r="1.4" fill="#060a0e" stroke="none" stroke-width="0" /><circle cx="744.8896992032935" cy="268.14862739325633" r="1.4" fill="#060a0e" stroke="none" stroke-width="0" /><circle cx="753.1103007967065" cy="268.14862739325633" r="1.4" fill="#060a0e" stroke="none" stroke-width="0" /><circle cx="761.0920266481504" cy="270.11594612442735" r="1.4" fill="#060a0e" stroke="none" stroke-width="0" /><circle cx="768.3710078635324" cy="273.9362501730263" r="1.4" fill="#060a0e" stroke="none" stroke-width="0" /><circle cx="774.5242165126346" cy="279.38751735398887" r="1.4" fill="#060a0e" stroke="none" stroke-width="0" /><circle cx="779.1940504747745" cy="286.15293983330747" r="1.4" fill="#060a0e" stroke="none" stroke-width="0" /><circle cx="782.1091159742284" cy="293.8393358477943" r="1.4" fill="#060a0e" stroke="none" stroke-width="0" /><path d="M773.18 279.06q18 25 0 44.64l-11-6v-36.58z" fill="#c02e37" stroke="#12181d" stroke-width="1" /><g class="wheel-spin" style="transform-box:fill-box;transform-origin:center;transform:rotate(var(--wheel-rot,0deg))"><path d="M-6-8L-4-44.64L5-48.980000000000004L9-45.26L5-8Z" fill="url(#viper-exterior-metal)" stroke="#26313b" stroke-width="1" transform="translate(749 302) rotate(0)"/><path d="M-6-8L-4-44.64L5-48.980000000000004L9-45.26L5-8Z" fill="url(#viper-exterior-metal)" stroke="#26313b" stroke-width="1" transform="translate(749 302) rotate(36)"/><path d="M-6-8L-4-44.64L5-48.980000000000004L9-45.26L5-8Z" fill="url(#viper-exterior-metal)" stroke="#26313b" stroke-width="1" transform="translate(749 302) rotate(72)"/><path d="M-6-8L-4-44.64L5-48.980000000000004L9-45.26L5-8Z" fill="url(#viper-exterior-metal)" stroke="#26313b" stroke-width="1" transform="translate(749 302) rotate(108)"/><path d="M-6-8L-4-44.64L5-48.980000000000004L9-45.26L5-8Z" fill="url(#viper-exterior-metal)" stroke="#26313b" stroke-width="1" transform="translate(749 302) rotate(144)"/><path d="M-6-8L-4-44.64L5-48.980000000000004L9-45.26L5-8Z" fill="url(#viper-exterior-metal)" stroke="#26313b" stroke-width="1" transform="translate(749 302) rotate(180)"/><path d="M-6-8L-4-44.64L5-48.980000000000004L9-45.26L5-8Z" fill="url(#viper-exterior-metal)" stroke="#26313b" stroke-width="1" transform="translate(749 302) rotate(216)"/><path d="M-6-8L-4-44.64L5-48.980000000000004L9-45.26L5-8Z" fill="url(#viper-exterior-metal)" stroke="#26313b" stroke-width="1" transform="translate(749 302) rotate(252)"/><path d="M-6-8L-4-44.64L5-48.980000000000004L9-45.26L5-8Z" fill="url(#viper-exterior-metal)" stroke="#26313b" stroke-width="1" transform="translate(749 302) rotate(288)"/><path d="M-6-8L-4-44.64L5-48.980000000000004L9-45.26L5-8Z" fill="url(#viper-exterior-metal)" stroke="#26313b" stroke-width="1" transform="translate(749 302) rotate(324)"/></g><circle cx="749" cy="302" r="10.540000000000001" fill="#17232b" stroke="#c02e37" stroke-width="2" /><circle cx="749" cy="302" r="4.340000000000001" fill="#bbc7cf" stroke="#3b4f5d" stroke-width="2" /></svg>