<svg xmlns="http://www.w3.org/2000/svg" viewBox="0 0 1000 450" role="img" aria-label="Zenvo Aurora Agil — hand-drawn exposed-carbon and red body profile" data-hand-drawn="2026-09-12"><defs>
 <linearGradient id="zenvo-exterior-metal" x1="0" y1="0" x2="0" y2="1"><stop stop-color="#f0f3f4"/><stop offset=".25" stop-color="#858f98"/><stop offset=".5" stop-color="#dde4e6"/><stop offset=".8" stop-color="#505c67"/><stop offset="1" stop-color="#9ca7b0"/></linearGradient>
 <linearGradient id="zenvo-exterior-carbonShade" x2=".75" y2="1"><stop stop-color="#353c41"/><stop offset=".5" stop-color="#12171b"/><stop offset="1" stop-color="#03070a"/></linearGradient>
 <pattern id="zenvo-exterior-weave" width="9" height="9" patternUnits="userSpaceOnUse" patternTransform="rotate(25)"><rect width="9" height="9" fill="#141b20"/><path d="M0 1h5M4 5h5" stroke="#39444a" stroke-width="2"/><path d="M1 0v5M6 4v5" stroke="#222c32" stroke-width="2"/></pattern>
 <linearGradient id="zenvo-exterior-rubber" x2=".8" y2="1"><stop stop-color="#3d4144"/><stop offset=".35" stop-color="#111417"/><stop offset=".85" stop-color="#020406"/><stop offset="1" stop-color="#242c31"/></linearGradient>
 <radialGradient id="zenvo-exterior-tyre"><stop stop-color="#1b2329"/><stop offset=".65" stop-color="#05080a"/><stop offset=".88" stop-color="#22292e"/><stop offset="1" stop-color="#020406"/></radialGradient>
 <linearGradient id="zenvo-exterior-glass" x2=".2" y2="1"><stop stop-color="#8ba5b5"/><stop offset=".24" stop-color="#3f5867"/><stop offset=".65" stop-color="#101f2a"/><stop offset="1" stop-color="#060b10"/></linearGradient>
 <linearGradient id="zenvo-exterior-silver" x2=".15" y2="1"><stop stop-color="#f8fafb"/><stop offset=".3" stop-color="#aebbc5"/><stop offset=".47" stop-color="#e9eef1"/><stop offset=".75" stop-color="#65737e"/><stop offset="1" stop-color="#202d38"/></linearGradient>
 <linearGradient id="zenvo-exterior-blue" x2="0" y2="1"><stop stop-color="#95b0d2"/><stop offset=".28" stop-color="#425d8b"/><stop offset=".52" stop-color="#172c59"/><stop offset=".76" stop-color="#3c5180"/><stop offset="1" stop-color="#0d1636"/></linearGradient>
 <linearGradient id="zenvo-exterior-red" x2=".2" y2="1"><stop stop-color="#ff8584"/><stop offset=".2" stop-color="#e32b36"/><stop offset=".48" stop-color="#9b091a"/><stop offset=".74" stop-color="#490d15"/><stop offset="1" stop-color="#18090e"/></linearGradient>
 <linearGradient id="zenvo-exterior-white" x2="0" y2="1"><stop stop-color="#f7fafb"/><stop offset=".5" stop-color="#b7c3c9"/><stop offset="1" stop-color="#555f69"/></linearGradient>
 <linearGradient id="zenvo-exterior-titanium" x2="1" y2=".4"><stop stop-color="#8a7660"/><stop offset=".22" stop-color="#e5d5b8"/><stop offset=".47" stop-color="#736560"/><stop offset=".72" stop-color="#b0afbc"/><stop offset="1" stop-color="#6b78a0"/></linearGradient>
 <linearGradient id="zenvo-exterior-suede" x2=".4" y2="1"><stop stop-color="#404346"/><stop offset=".45" stop-color="#191d21"/><stop offset="1" stop-color="#090d10"/></linearGradient>
</defs><rect x="0" y="0" width="1000" height="450" rx="0" fill="#0e151d" stroke="none" /><path d="M0 357H1000V450H0Z" fill="#080e14" stroke="none" stroke-width="1.5" /><path d="M0 370H1000" fill="none" stroke="#233440" stroke-width="1" /><ellipse cx="505" cy="366" rx="450" ry="20" fill="#000" opacity=".75"/><path d="M39 325Q169 330 302 331L674 331L943 327L955 343L35 345Z" fill="url(#zenvo-exterior-weave)" stroke="#71868c" stroke-width="1" /><g id="rearWingArt"><path d="M866 235L879 167L891 165L885 236M920 238L930 174L941 178L938 245" fill="url(#zenvo-exterior-weave)" stroke="#566b70" stroke-width="2" /><path d="M839 159Q894 138 970 155L955 177L848 180Z" fill="url(#zenvo-exterior-weave)" stroke="#93b7bb" stroke-width="2" /><path d="M955 150l29 6-14 24-24-7z" fill="#1c2a30" stroke="#749ca2" stroke-width="1" /></g><g id="bcBody"><path d="M320 218L375 186Q428 154 484 150L543 153Q623 163 705 195L832 229L823 326L323 327Z" fill="url(#zenvo-exterior-weave)" stroke="#596b70" stroke-width="1.5" />
<path d="M347 215L395 181Q434 162 479 163L531 166L599 203L566 219Z" fill="url(#zenvo-exterior-glass)" stroke="#7b939b" stroke-width="1.5" /><path d="M536 157L602 169L703 196L764 219L582 218Z" fill="url(#zenvo-exterior-carbonShade)" stroke="#718388" stroke-width="1" /><path d="M537 155L539 213" fill="none" stroke="#414e55" stroke-width="4" /><circle cx="568" cy="187" r="12" fill="#121d24" stroke="#849399" stroke-width="2" />
<path d="M51 307L88 267Q132 222 198 219Q254 211 298 234L319 264L301 326L288 326A71 99 0 0 0 146 328L82 323Z" fill="url(#zenvo-exterior-red)" stroke="#f16f73" stroke-width="1.5" />
<path d="M302 235L520 222L567 231L531 245L321 253Z" fill="url(#zenvo-exterior-red)" stroke="#d95358" stroke-width="1.5" /><path d="M554 230Q655 205 744 207Q823 194 888 236L913 282L904 328L861 329A70 105 0 0 0 722 334L686 323Q617 288 554 230Z" fill="url(#zenvo-exterior-red)" stroke="#db5c64" stroke-width="1.5" />
<g id="doorArt"><path d="M320 255L530 246L557 263L535 326L344 326L320 289L352 278Z" fill="url(#zenvo-exterior-carbonShade)" stroke="#52676e" stroke-width="1.5" /><path d="M335 252L520 244" fill="none" stroke="#64838a" stroke-width="2" /><path d="M333 270l31 11-25 23-21-2 30-21z" fill="url(#zenvo-exterior-metal)" stroke="#0b202a" stroke-width="1" /></g>
<path d="M50 307L108 290L138 316L141 337L35 337Z" fill="url(#zenvo-exterior-weave)" stroke="#566d73" stroke-width="1" /><path d="M83 265L124 246L120 264L77 285Z" fill="#d4f2f7" stroke="#638b99" stroke-width="1" /><path d="M83 269L119 251" fill="none" stroke="#fff" stroke-width="4" />
<path d="M875 244l58 13-22 11-28-9z" fill="#152229" stroke="#758b8f" stroke-width="1" /><path d="M893 254L923 260" fill="none" stroke="#f64845" stroke-width="3" /><path d="M389 195l-30-3-14 10 17 11 26-4z" fill="url(#zenvo-exterior-carbonShade)" stroke="#6d9298" stroke-width="1" /><path d="M365 211l-4 14" fill="#142429" stroke="#3b5862" stroke-width="5" />
</g><g id="frontFlapArt"><path d="M40 316L93 315L70 329L34 327Z" fill="url(#zenvo-exterior-weave)" stroke="#7c989e" stroke-width="1" /></g><g id="quadExhaustArt"><path d="M910 285l25 4-5 18-21-3z" fill="url(#zenvo-exterior-titanium)" stroke="#253940" stroke-width="1" /><path d="M916 290l14 2-3 11-12-1z" fill="#020609" stroke="#61757c" stroke-width="1" /></g>
<circle cx="221" cy="302" r="65" fill="url(#zenvo-exterior-tyre)" stroke="#060b10" stroke-width="3" /><circle cx="221" cy="302" r="55.25" fill="#161f26" stroke="#343e46" stroke-width="2" /><circle cx="221" cy="302" r="46.8" fill="url(#zenvo-exterior-metal)" stroke="#48545f" stroke-width="2" /><circle cx="221" cy="302" r="39" fill="#292e32" stroke="#5b6065" stroke-width="1" /><circle cx="256.75" cy="302" r="1.4" fill="#060a0e" stroke="none" stroke-width="0" /><circle cx="255.71116997298137" cy="310.55553499828017" r="1.4" fill="#060a0e" stroke="none" stroke-width="0" /><circle cx="252.65505291710227" cy="318.6138534005647" r="1.4" fill="#060a0e" stroke="none" stroke-width="0" /><circle cx="247.75925924711686" cy="325.7066350321084" r="1.4" fill="#060a0e" stroke="none" stroke-width="0" /><circle cx="241.3083146956388" cy="331.4216732056982" r="1.4" fill="#060a0e" stroke="none" stroke-width="0" /><circle cx="233.67712471177066" cy="335.4268306760036" r="1.4" fill="#060a0e" stroke="none" stroke-width="0" /><circle cx="225.3091863191278" cy="337.4893422490054" r="1.4" fill="#060a0e" stroke="none" stroke-width="0" /><circle cx="216.6908136808722" cy="337.4893422490054" r="1.4" fill="#060a0e" stroke="none" stroke-width="0" /><circle cx="208.32287528822937" cy="335.4268306760036" r="1.4" fill="#060a0e" stroke="none" stroke-width="0" /><circle cx="200.6916853043612" cy="331.4216732056982" r="1.4" fill="#060a0e" stroke="none" stroke-width="0" /><circle cx="194.24074075288314" cy="325.7066350321084" r="1.4" fill="#060a0e" stroke="none" stroke-width="0" /><circle cx="189.34494708289776" cy="318.6138534005647" r="1.4" fill="#060a0e" stroke="none" stroke-width="0" /><circle cx="186.28883002701863" cy="310.55553499828017" r="1.4" fill="#060a0e" stroke="none" stroke-width="0" /><circle cx="185.25" cy="302" r="1.4" fill="#060a0e" stroke="none" stroke-width="0" /><circle cx="186.28883002701863" cy="293.44446500171983" r="1.4" fill="#060a0e" stroke="none" stroke-width="0" /><circle cx="189.34494708289773" cy="285.3861465994353" r="1.4" fill="#060a0e" stroke="none" stroke-width="0" /><circle cx="194.24074075288314" cy="278.2933649678916" r="1.4" fill="#060a0e" stroke="none" stroke-width="0" /><circle cx="200.6916853043612" cy="272.5783267943018" r="1.4" fill="#060a0e" stroke="none" stroke-width="0" /><circle cx="208.32287528822934" cy="268.5731693239964" r="1.4" fill="#060a0e" stroke="none" stroke-width="0" /><circle cx="216.69081368087217" cy="266.5106577509946" r="1.4" fill="#060a0e" stroke="none" stroke-width="0" /><circle cx="225.3091863191278" cy="266.5106577509946" r="1.4" fill="#060a0e" stroke="none" stroke-width="0" /><circle cx="233.67712471177066" cy="268.5731693239964" r="1.4" fill="#060a0e" stroke="none" stroke-width="0" /><circle cx="241.30831469563878" cy="272.57832679430174" r="1.4" fill="#060a0e" stroke="none" stroke-width="0" /><circle cx="247.75925924711686" cy="278.29336496789153" r="1.4" fill="#060a0e" stroke="none" stroke-width="0" /><circle cx="252.65505291710227" cy="285.3861465994353" r="1.4" fill="#060a0e" stroke="none" stroke-width="0" /><circle cx="255.71116997298137" cy="293.44446500171983" r="1.4" fill="#060a0e" stroke="none" stroke-width="0" /><path d="M246.35 277.95q18 25 0 46.8l-11-6v-38.35z" fill="#748f96" stroke="#12181d" stroke-width="1" /><g class="wheel-spin" style="transform-box:fill-box;transform-origin:center;transform:rotate(var(--wheel-rot,0deg))"><path d="M-6-8L-4-46.8L5-51.35L9-47.449999999999996L5-8Z" fill="url(#zenvo-exterior-metal)" stroke="#26313b" stroke-width="1" transform="translate(221 302) rotate(0)"/><path d="M-6-8L-4-46.8L5-51.35L9-47.449999999999996L5-8Z" fill="url(#zenvo-exterior-metal)" stroke="#26313b" stroke-width="1" transform="translate(221 302) rotate(25.714285714285715)"/><path d="M-6-8L-4-46.8L5-51.35L9-47.449999999999996L5-8Z" fill="url(#zenvo-exterior-metal)" stroke="#26313b" stroke-width="1" transform="translate(221 302) rotate(51.42857142857143)"/><path d="M-6-8L-4-46.8L5-51.35L9-47.449999999999996L5-8Z" fill="url(#zenvo-exterior-metal)" stroke="#26313b" stroke-width="1" transform="translate(221 302) rotate(77.14285714285714)"/><path d="M-6-8L-4-46.8L5-51.35L9-47.449999999999996L5-8Z" fill="url(#zenvo-exterior-metal)" stroke="#26313b" stroke-width="1" transform="translate(221 302) rotate(102.85714285714286)"/><path d="M-6-8L-4-46.8L5-51.35L9-47.449999999999996L5-8Z" fill="url(#zenvo-exterior-metal)" stroke="#26313b" stroke-width="1" transform="translate(221 302) rotate(128.57142857142858)"/><path d="M-6-8L-4-46.8L5-51.35L9-47.449999999999996L5-8Z" fill="url(#zenvo-exterior-metal)" stroke="#26313b" stroke-width="1" transform="translate(221 302) rotate(154.28571428571428)"/><path d="M-6-8L-4-46.8L5-51.35L9-47.449999999999996L5-8Z" fill="url(#zenvo-exterior-metal)" stroke="#26313b" stroke-width="1" transform="translate(221 302) rotate(180)"/><path d="M-6-8L-4-46.8L5-51.35L9-47.449999999999996L5-8Z" fill="url(#zenvo-exterior-metal)" stroke="#26313b" stroke-width="1" transform="translate(221 302) rotate(205.71428571428572)"/><path d="M-6-8L-4-46.8L5-51.35L9-47.449999999999996L5-8Z" fill="url(#zenvo-exterior-metal)" stroke="#26313b" stroke-width="1" transform="translate(221 302) rotate(231.42857142857142)"/><path d="M-6-8L-4-46.8L5-51.35L9-47.449999999999996L5-8Z" fill="url(#zenvo-exterior-metal)" stroke="#26313b" stroke-width="1" transform="translate(221 302) rotate(257.14285714285717)"/><path d="M-6-8L-4-46.8L5-51.35L9-47.449999999999996L5-8Z" fill="url(#zenvo-exterior-metal)" stroke="#26313b" stroke-width="1" transform="translate(221 302) rotate(282.85714285714283)"/><path d="M-6-8L-4-46.8L5-51.35L9-47.449999999999996L5-8Z" fill="url(#zenvo-exterior-metal)" stroke="#26313b" stroke-width="1" transform="translate(221 302) rotate(308.57142857142856)"/><path d="M-6-8L-4-46.8L5-51.35L9-47.449999999999996L5-8Z" fill="url(#zenvo-exterior-metal)" stroke="#26313b" stroke-width="1" transform="translate(221 302) rotate(334.2857142857143)"/></g><circle cx="221" cy="302" r="11.05" fill="#17232b" stroke="#748f96" stroke-width="2" /><circle cx="221" cy="302" r="4.550000000000001" fill="#bbc7cf" stroke="#3b4f5d" stroke-width="2" /><circle cx="794" cy="302" r="65" fill="url(#zenvo-exterior-tyre)" stroke="#060b10" stroke-width="3" /><circle cx="794" cy="302" r="55.25" fill="#161f26" stroke="#343e46" stroke-width="2" /><circle cx="794" cy="302" r="46.8" fill="url(#zenvo-exterior-metal)" stroke="#48545f" stroke-width="2" /><circle cx="794" cy="302" r="39" fill="#292e32" stroke="#5b6065" stroke-width="1" /><circle cx="829.75" cy="302" r="1.4" fill="#060a0e" stroke="none" stroke-width="0" /><circle cx="828.7111699729813" cy="310.55553499828017" r="1.4" fill="#060a0e" stroke="none" stroke-width="0" /><circle cx="825.6550529171022" cy="318.6138534005647" r="1.4" fill="#060a0e" stroke="none" stroke-width="0" /><circle cx="820.7592592471169" cy="325.7066350321084" r="1.4" fill="#060a0e" stroke="none" stroke-width="0" /><circle cx="814.3083146956388" cy="331.4216732056982" r="1.4" fill="#060a0e" stroke="none" stroke-width="0" /><circle cx="806.6771247117706" cy="335.4268306760036" r="1.4" fill="#060a0e" stroke="none" stroke-width="0" /><circle cx="798.3091863191278" cy="337.4893422490054" r="1.4" fill="#060a0e" stroke="none" stroke-width="0" /><circle cx="789.6908136808722" cy="337.4893422490054" r="1.4" fill="#060a0e" stroke="none" stroke-width="0" /><circle cx="781.3228752882294" cy="335.4268306760036" r="1.4" fill="#060a0e" stroke="none" stroke-width="0" /><circle cx="773.6916853043612" cy="331.4216732056982" r="1.4" fill="#060a0e" stroke="none" stroke-width="0" /><circle cx="767.2407407528831" cy="325.7066350321084" r="1.4" fill="#060a0e" stroke="none" stroke-width="0" /><circle cx="762.3449470828978" cy="318.6138534005647" r="1.4" fill="#060a0e" stroke="none" stroke-width="0" /><circle cx="759.2888300270187" cy="310.55553499828017" r="1.4" fill="#060a0e" stroke="none" stroke-width="0" /><circle cx="758.25" cy="302" r="1.4" fill="#060a0e" stroke="none" stroke-width="0" /><circle cx="759.2888300270187" cy="293.44446500171983" r="1.4" fill="#060a0e" stroke="none" stroke-width="0" /><circle cx="762.3449470828978" cy="285.3861465994353" r="1.4" fill="#060a0e" stroke="none" stroke-width="0" /><circle cx="767.2407407528831" cy="278.2933649678916" r="1.4" fill="#060a0e" stroke="none" stroke-width="0" /><circle cx="773.6916853043612" cy="272.5783267943018" r="1.4" fill="#060a0e" stroke="none" stroke-width="0" /><circle cx="781.3228752882294" cy="268.5731693239964" r="1.4" fill="#060a0e" stroke="none" stroke-width="0" /><circle cx="789.6908136808722" cy="266.5106577509946" r="1.4" fill="#060a0e" stroke="none" stroke-width="0" /><circle cx="798.3091863191278" cy="266.5106577509946" r="1.4" fill="#060a0e" stroke="none" stroke-width="0" /><circle cx="806.6771247117706" cy="268.5731693239964" r="1.4" fill="#060a0e" stroke="none" stroke-width="0" /><circle cx="814.3083146956387" cy="272.57832679430174" r="1.4" fill="#060a0e" stroke="none" stroke-width="0" /><circle cx="820.7592592471168" cy="278.29336496789153" r="1.4" fill="#060a0e" stroke="none" stroke-width="0" /><circle cx="825.6550529171022" cy="285.3861465994353" r="1.4" fill="#060a0e" stroke="none" stroke-width="0" /><circle cx="828.7111699729813" cy="293.44446500171983" r="1.4" fill="#060a0e" stroke="none" stroke-width="0" /><path d="M819.35 277.95q18 25 0 46.8l-11-6v-38.35z" fill="#748f96" stroke="#12181d" stroke-width="1" /><g class="wheel-spin" style="transform-box:fill-box;transform-origin:center;transform:rotate(var(--wheel-rot,0deg))"><path d="M-6-8L-4-46.8L5-51.35L9-47.449999999999996L5-8Z" fill="url(#zenvo-exterior-metal)" stroke="#26313b" stroke-width="1" transform="translate(794 302) rotate(0)"/><path d="M-6-8L-4-46.8L5-51.35L9-47.449999999999996L5-8Z" fill="url(#zenvo-exterior-metal)" stroke="#26313b" stroke-width="1" transform="translate(794 302) rotate(25.714285714285715)"/><path d="M-6-8L-4-46.8L5-51.35L9-47.449999999999996L5-8Z" fill="url(#zenvo-exterior-metal)" stroke="#26313b" stroke-width="1" transform="translate(794 302) rotate(51.42857142857143)"/><path d="M-6-8L-4-46.8L5-51.35L9-47.449999999999996L5-8Z" fill="url(#zenvo-exterior-metal)" stroke="#26313b" stroke-width="1" transform="translate(794 302) rotate(77.14285714285714)"/><path d="M-6-8L-4-46.8L5-51.35L9-47.449999999999996L5-8Z" fill="url(#zenvo-exterior-metal)" stroke="#26313b" stroke-width="1" transform="translate(794 302) rotate(102.85714285714286)"/><path d="M-6-8L-4-46.8L5-51.35L9-47.449999999999996L5-8Z" fill="url(#zenvo-exterior-metal)" stroke="#26313b" stroke-width="1" transform="translate(794 302) rotate(128.57142857142858)"/><path d="M-6-8L-4-46.8L5-51.35L9-47.449999999999996L5-8Z" fill="url(#zenvo-exterior-metal)" stroke="#26313b" stroke-width="1" transform="translate(794 302) rotate(154.28571428571428)"/><path d="M-6-8L-4-46.8L5-51.35L9-47.449999999999996L5-8Z" fill="url(#zenvo-exterior-metal)" stroke="#26313b" stroke-width="1" transform="translate(794 302) rotate(180)"/><path d="M-6-8L-4-46.8L5-51.35L9-47.449999999999996L5-8Z" fill="url(#zenvo-exterior-metal)" stroke="#26313b" stroke-width="1" transform="translate(794 302) rotate(205.71428571428572)"/><path d="M-6-8L-4-46.8L5-51.35L9-47.449999999999996L5-8Z" fill="url(#zenvo-exterior-metal)" stroke="#26313b" stroke-width="1" transform="translate(794 302) rotate(231.42857142857142)"/><path d="M-6-8L-4-46.8L5-51.35L9-47.449999999999996L5-8Z" fill="url(#zenvo-exterior-metal)" stroke="#26313b" stroke-width="1" transform="translate(794 302) rotate(257.14285714285717)"/><path d="M-6-8L-4-46.8L5-51.35L9-47.449999999999996L5-8Z" fill="url(#zenvo-exterior-metal)" stroke="#26313b" stroke-width="1" transform="translate(794 302) rotate(282.85714285714283)"/><path d="M-6-8L-4-46.8L5-51.35L9-47.449999999999996L5-8Z" fill="url(#zenvo-exterior-metal)" stroke="#26313b" stroke-width="1" transform="translate(794 302) rotate(308.57142857142856)"/><path d="M-6-8L-4-46.8L5-51.35L9-47.449999999999996L5-8Z" fill="url(#zenvo-exterior-metal)" stroke="#26313b" stroke-width="1" transform="translate(794 302) rotate(334.2857142857143)"/></g><circle cx="794" cy="302" r="11.05" fill="#17232b" stroke="#748f96" stroke-width="2" /><circle cx="794" cy="302" r="4.550000000000001" fill="#bbc7cf" stroke="#3b4f5d" stroke-width="2" /></svg>